<svg width="24" height="24" viewBox="0 0 24 24" fill="none" xmlns="http://www.w3.org/2000/svg">
<path d="M2 2L22 2M9.77778 8.66667V19.7778C9.77778 21.0051 8.78286 22 7.55556 22C6.32826 22 5.33333 21.0051 5.33333 19.7778L5.33333 8.66667C5.33333 7.43937 6.32826 6.44445 7.55556 6.44445C8.78286 6.44445 9.77778 7.43937 9.77778 8.66667ZM18.6667 8.66667V12C18.6667 13.2273 17.6717 14.2222 16.4444 14.2222C15.2171 14.2222 14.2222 13.2273 14.2222 12V8.66667C14.2222 7.43937 15.2171 6.44444 16.4444 6.44444C17.6717 6.44444 18.6667 7.43937 18.6667 8.66667Z" stroke="#0B0D12" stroke-width="2" stroke-linecap="round" stroke-linejoin="round"/>
</svg>
