<svg width="24" height="24" viewBox="0 0 24 24" fill="none" xmlns="http://www.w3.org/2000/svg">
<path d="M2 12H5.33333M14.2222 12V17.7143C14.2222 18.9767 15.2171 20 16.4444 20C17.6717 20 18.6667 18.9767 18.6667 17.7143V12M14.2222 12V6.28571C14.2222 5.02335 15.2171 4 16.4444 4C17.6717 4 18.6667 5.02335 18.6667 6.28571V12M14.2222 12L9.77778 12M18.6667 12H22M9.77778 12V9.71429C9.77778 8.45192 8.78286 7.42857 7.55556 7.42857C6.32826 7.42857 5.33333 8.45192 5.33333 9.71429V12M9.77778 12V14.2857C9.77778 15.5481 8.78286 16.5714 7.55556 16.5714C6.32826 16.5714 5.33333 15.5481 5.33333 14.2857V12" stroke="#0B0D12" stroke-width="2" stroke-linecap="round" stroke-linejoin="round"/>
</svg>
