<svg width="24" height="24" viewBox="0 0 24 24" fill="none" xmlns="http://www.w3.org/2000/svg">
<path d="M22 2V22M15.3333 9.77778H4.22222C2.99492 9.77778 2 8.78286 2 7.55556C2 6.32826 2.99492 5.33333 4.22222 5.33333H15.3333C16.5606 5.33333 17.5556 6.32826 17.5556 7.55556C17.5556 8.78286 16.5606 9.77778 15.3333 9.77778ZM15.3333 18.6667H12C10.7727 18.6667 9.77778 17.6717 9.77778 16.4444C9.77778 15.2171 10.7727 14.2222 12 14.2222H15.3333C16.5606 14.2222 17.5556 15.2171 17.5556 16.4444C17.5556 17.6717 16.5606 18.6667 15.3333 18.6667Z" stroke="#0B0D12" stroke-width="2" stroke-linecap="round" stroke-linejoin="round"/>
</svg>
