<svg width="24" height="24" viewBox="0 0 24 24" fill="none" xmlns="http://www.w3.org/2000/svg">
<path d="M2 22H22M9.77778 15.3333V4.22222C9.77778 2.99492 8.78286 2 7.55556 2C6.32826 2 5.33333 2.99492 5.33333 4.22222L5.33333 15.3333C5.33333 16.5606 6.32826 17.5556 7.55556 17.5556C8.78286 17.5556 9.77778 16.5606 9.77778 15.3333ZM18.6667 15.3333V12C18.6667 10.7727 17.6717 9.77778 16.4444 9.77778C15.2171 9.77778 14.2222 10.7727 14.2222 12V15.3333C14.2222 16.5606 15.2171 17.5556 16.4444 17.5556C17.6717 17.5556 18.6667 16.5606 18.6667 15.3333Z" stroke="#0B0D12" stroke-width="2" stroke-linecap="round" stroke-linejoin="round"/>
</svg>
