<svg width="24" height="24" viewBox="0 0 24 24" fill="none" xmlns="http://www.w3.org/2000/svg">
<path d="M2 2V22M8.66667 9.77778H19.7778C21.0051 9.77778 22 8.78286 22 7.55556C22 6.32826 21.0051 5.33333 19.7778 5.33333H8.66667C7.43937 5.33333 6.44444 6.32826 6.44444 7.55556C6.44444 8.78286 7.43937 9.77778 8.66667 9.77778ZM8.66667 18.6667H12C13.2273 18.6667 14.2222 17.6717 14.2222 16.4444C14.2222 15.2171 13.2273 14.2222 12 14.2222H8.66667C7.43937 14.2222 6.44444 15.2171 6.44444 16.4444C6.44444 17.6717 7.43937 18.6667 8.66667 18.6667Z" stroke="#0B0D12" stroke-width="2" stroke-linecap="round" stroke-linejoin="round"/>
</svg>
