<svg width="24" height="24" viewBox="0 0 24 24" fill="none" xmlns="http://www.w3.org/2000/svg">
<path d="M3 5C3 3.89543 3.89543 3 5 3H8C9.10457 3 10 3.89543 10 5V8C10 9.10457 9.10457 10 8 10H5C3.89543 10 3 9.10457 3 8V5Z" stroke="#0B0D12" stroke-width="2" stroke-linecap="round" stroke-linejoin="round"/>
<path d="M3 16C3 14.8954 3.89543 14 5 14H8C9.10457 14 10 14.8954 10 16V19C10 20.1046 9.10457 21 8 21H5C3.89543 21 3 20.1046 3 19V16Z" stroke="#0B0D12" stroke-width="2" stroke-linecap="round" stroke-linejoin="round"/>
<path d="M14 16C14 14.8954 14.8954 14 16 14H19C20.1046 14 21 14.8954 21 16V19C21 20.1046 20.1046 21 19 21H16C14.8954 21 14 20.1046 14 19V16Z" stroke="#0B0D12" stroke-width="2" stroke-linecap="round" stroke-linejoin="round"/>
<path d="M13.9645 7.91421C13.1834 7.13316 13.1834 5.86683 13.9645 5.08578L16.0858 2.96446C16.8668 2.18342 18.1332 2.18342 18.9142 2.96446L21.0355 5.08578C21.8166 5.86683 21.8166 7.13316 21.0355 7.91421L18.9142 10.0355C18.1332 10.8166 16.8668 10.8166 16.0858 10.0355L13.9645 7.91421Z" stroke="#0B0D12" stroke-width="2" stroke-linecap="round" stroke-linejoin="round"/>
</svg>
