<svg width="24" height="24" viewBox="0 0 24 24" fill="none" xmlns="http://www.w3.org/2000/svg">
<path d="M16.4712 16.4712C15.0333 17.909 13.5051 19.0979 12 20M7.52884 7.52884C8.96667 6.09101 10.4949 4.90211 12 4M12 20C10.4949 19.0979 8.96668 17.909 7.52885 16.4712C6.09102 15.0333 4.90211 13.5051 4.00001 12M12 20C15.6646 22.1965 19.1919 22.6928 20.9423 20.9423C22.6928 19.1919 22.1965 15.6646 20 12M12 20C8.33539 22.1965 4.80812 22.6928 3.05769 20.9423C1.30725 19.1919 1.80352 15.6646 4.00001 12M20 12C19.0979 10.4949 17.909 8.96667 16.4712 7.52884C15.0333 6.09101 13.5051 4.90211 12 4M20 12C22.1965 8.33539 22.6927 4.80812 20.9423 3.05769C19.1919 1.30725 15.6646 1.80352 12 4M12 4C8.33539 1.80352 4.80813 1.30725 3.05769 3.05769C1.30726 4.80812 1.80353 8.33539 4.00001 12M12 12H12.0222M13.1111 12C13.1111 12.6137 12.6137 13.1111 12 13.1111C11.3864 13.1111 10.8889 12.6137 10.8889 12C10.8889 11.3864 11.3864 10.8889 12 10.8889C12.6137 10.8889 13.1111 11.3864 13.1111 12Z" stroke="#0B0D12" stroke-width="2" stroke-linecap="round" stroke-linejoin="round"/>
</svg>
