<svg width="24" height="24" viewBox="0 0 24 24" fill="none" xmlns="http://www.w3.org/2000/svg">
<path d="M15.3333 22V4C15.3333 2.89543 16.2288 2 17.3333 2H20C21.1046 2 22 2.89543 22 4V20C22 21.1046 21.1046 22 20 22H15.3333ZM15.3333 22H8.66667M15.3333 22V9.55555C15.3333 8.45098 14.4379 7.55556 13.3333 7.55556H10.6667C9.5621 7.55556 8.66667 8.45099 8.66667 9.55556V22M8.66667 22H4C2.89543 22 2 21.1046 2 20V15.1111C2 14.0065 2.89543 13.1111 4 13.1111H6.66667C7.77124 13.1111 8.66667 14.0065 8.66667 15.1111V22Z" stroke="#0B0D12" stroke-width="2" stroke-linecap="round" stroke-linejoin="round"/>
</svg>
