<svg width="24" height="24" viewBox="0 0 24 24" fill="none" xmlns="http://www.w3.org/2000/svg">
<path d="M16 2H21M21 2V7M21 2L13.7031 8.39735C13.3064 8.73741 12.7147 8.71469 12.3452 8.3452L9.70711 5.70711C9.31658 5.31658 8.68342 5.31658 8.29289 5.70711L2 12M4 22C2.89543 22 2 21.1046 2 20V18C2 16.8954 2.89543 16 4 16C5.10457 16 6 16.8954 6 18V20C6 21.1046 5.10457 22 4 22ZM12 22C10.8954 22 10 21.1046 10 20V16C10 14.8954 10.8954 14 12 14C13.1046 14 14 14.8954 14 16V20C14 21.1046 13.1046 22 12 22ZM20 22C18.8954 22 18 21.1046 18 20V14C18 12.8954 18.8954 12 20 12C21.1046 12 22 12.8954 22 14V20C22 21.1046 21.1046 22 20 22Z" stroke="#0B0D12" stroke-width="2" stroke-linecap="round" stroke-linejoin="round"/>
</svg>
