<svg width="24" height="24" viewBox="0 0 24 24" fill="none" xmlns="http://www.w3.org/2000/svg">
<path d="M15.3333 20.8889C13.4657 22.3616 10.5522 22.3791 8.66667 20.8889M2 7.55556L2.42204 5.29043C2.57889 4.03558 3.09829 2.9055 3.86719 2M22 7.55556L21.578 5.29043C21.4211 4.03557 20.9017 2.9055 20.1328 2M4.84115 11.7092L4.4536 12.3551C3.37378 14.1548 4.67015 16.4444 6.76895 16.4444H17.231C19.3298 16.4444 20.6262 14.1548 19.5464 12.3551L19.1588 11.7092C18.8343 11.1683 18.6263 10.5656 18.548 9.93965L18.2446 7.51266C17.851 4.36334 15.1738 2 12 2C8.82617 2 6.14903 4.36334 5.75536 7.51266L5.45199 9.93965C5.37375 10.5656 5.1657 11.1683 4.84115 11.7092Z" stroke="#0B0D12" stroke-width="2" stroke-linecap="round" stroke-linejoin="round"/>
</svg>
