<svg width="24" height="24" viewBox="0 0 24 24" fill="none" xmlns="http://www.w3.org/2000/svg">
<path d="M12 5.125C12 3.39911 10.7563 2 9.22222 2C8.3441 2 7.56114 2.4584 7.05211 3.17409C6.5386 3.89609 5.89912 4.6091 5.25759 5.1911C4.62616 5.76393 4.22222 6.6414 4.22222 7.625C4.22222 7.73161 4.22697 7.83697 4.23623 7.94084M12 5.125V19.5M12 5.125C12 3.39911 13.2437 2 14.7778 2C15.6559 2 16.4389 2.4584 16.9479 3.17409C17.4614 3.89609 18.1009 4.6091 18.7424 5.1911C19.3738 5.76393 19.7778 6.6414 19.7778 7.625C19.7778 7.73161 19.773 7.83697 19.7638 7.94084M12 19.5C12 20.8807 11.0051 22 9.77778 22C9.1944 22 8.66353 21.7471 8.26705 21.3334C7.92918 20.9809 7.46347 20.75 7 20.75C5.59292 20.75 4.4302 19.573 4.24727 18.0465M12 19.5C12 20.8807 12.9949 22 14.2222 22C14.8056 22 15.3365 21.7471 15.733 21.3334C16.0708 20.9809 16.5365 20.75 17 20.75C18.4071 20.75 19.5698 19.573 19.7527 18.0465M4.23623 7.94084C3.54616 8.62789 3.11111 9.63179 3.11111 10.75C3.11111 10.8333 3.10725 10.9165 3.09966 10.9994M4.23623 7.94084C4.82426 7.35539 5.59746 7 6.44444 7C7.08498 7 7.68332 7.20325 8.19128 7.55556M4.24727 18.0465C4.5877 18.1784 4.95308 18.25 5.33333 18.25C6.05388 18.25 6.72103 17.9928 7.26619 17.5556M4.24727 18.0465C2.93954 17.5397 2 16.1433 2 14.5C2 13.658 2.24668 12.8808 2.66317 12.2549C2.90601 11.8899 3.05828 11.4508 3.09966 10.9994M19.7638 7.94084C20.4538 8.62789 20.8889 9.63179 20.8889 10.75C20.8889 10.8333 20.8927 10.9165 20.9003 10.9994M19.7638 7.94084C19.1757 7.35539 18.4025 7 17.5556 7C16.915 7 16.3167 7.20325 15.8087 7.55556M19.7527 18.0465C19.4123 18.1784 19.0469 18.25 18.6667 18.25C17.9461 18.25 17.279 17.9928 16.7338 17.5556M19.7527 18.0465C21.0605 17.5397 22 16.1433 22 14.5C22 13.658 21.7533 12.8808 21.3368 12.2549C21.094 11.8899 20.9417 11.4508 20.9003 10.9994M6.10684 12.6645C5.46849 11.5589 4.29239 10.9573 3.09966 10.9994M17.8932 12.6645C18.5315 11.5589 19.7076 10.9573 20.9003 10.9994" stroke="#0B0D12" stroke-width="2" stroke-linecap="round" stroke-linejoin="round"/>
</svg>
