<svg width="24" height="24" viewBox="0 0 24 24" fill="none" xmlns="http://www.w3.org/2000/svg">
<path d="M5.03054 12.8568C1.30242 13.9205 3.50576 18.9885 2 22H6.67133C8.58744 22 10.2341 20.8463 10.9546 19.1957M5.03054 12.8568C5.48395 12.7275 6.0251 12.6573 6.67133 12.6573C9.25124 12.6573 11.3427 14.7488 11.3427 17.3287C11.3427 17.9925 11.2042 18.6239 10.9546 19.1957M5.03054 12.8568L9.59091 9.05652M10.9546 19.1957L14.9435 14.4091M9.59091 9.05652L17.2539 2.6707C18.4036 1.7126 20.0942 1.78929 21.1525 2.84754C22.2107 3.90579 22.2874 5.59638 21.3293 6.7461L14.9435 14.4091M9.59091 9.05652C12.0421 10.0184 13.9816 11.9579 14.9435 14.4091" stroke="#0B0D12" stroke-width="2" stroke-linecap="round" stroke-linejoin="round"/>
</svg>
