<svg width="24" height="24" viewBox="0 0 24 24" fill="none" xmlns="http://www.w3.org/2000/svg">
<path d="M5 10.7282V4.58476C5 3.17088 6.43369 2.17251 7.822 2.61961C8.2621 2.76135 8.7379 2.76135 9.178 2.61961L10.25 2.27437C11.3859 1.90854 12.6141 1.90854 13.75 2.27437L14.822 2.61961C15.2621 2.76135 15.7379 2.76135 16.178 2.61961C17.5663 2.17251 19 3.17088 19 4.58476V10.7282M5 10.7282H19M5 10.7282C5 13.2183 7.08934 15.2369 9.66667 15.2369M19 10.7282C19 13.2183 16.9107 15.2369 14.3333 15.2369M9.66667 15.2369H14.3333M9.66667 15.2369V19.7456C9.66667 20.9907 10.7113 22 12 22C13.2887 22 14.3333 20.9907 14.3333 19.7456V15.2369" stroke="#0B0D12" stroke-width="2" stroke-linecap="round" stroke-linejoin="round"/>
</svg>
