<svg width="24" height="24" viewBox="0 0 24 24" fill="none" xmlns="http://www.w3.org/2000/svg">
<path d="M20.9749 20.9749C21.6082 20.3415 22 19.4665 22 18.5C22 16.567 20.433 15 18.5 15C17.5335 15 16.6585 15.3918 16.0251 16.0251M20.9749 20.9749C20.3415 21.6082 19.4665 22 18.5 22C16.567 22 15 20.433 15 18.5C15 17.5335 15.3918 16.6585 16.0251 16.0251M20.9749 20.9749L16.0251 16.0251M7.5 4.22222H16.5M7.5 4.22222C5.01472 4.22222 3 6.21207 3 8.66667V10.8889M7.5 4.22222V2M7.5 4.22222V6.44444M16.5 4.22222C18.9853 4.22222 21 6.21207 21 8.66667V10.8889H3M16.5 4.22222V2M16.5 4.22222V6.44444M3 10.8889V17.5556C3 20.0102 5.01472 22 7.5 22H12" stroke="#0B0D12" stroke-width="2" stroke-linecap="round" stroke-linejoin="round"/>
</svg>
