<svg width="24" height="24" viewBox="0 0 24 24" fill="none" xmlns="http://www.w3.org/2000/svg">
<path d="M15.3333 13.0588C15.3333 14.8131 13.8409 16.2353 12 16.2353M22 2L17.6869 6.31309M2 22L3.91196 20.088M17.6869 6.31309C17.3775 6.15234 17.1083 5.91969 16.9073 5.62954L15.8674 4.12849C15.5266 3.63667 14.9896 3.3025 14.3837 3.20532L14.192 3.17458C12.7407 2.94181 11.2593 2.94181 9.80801 3.17458L9.61631 3.20532C9.01042 3.3025 8.47336 3.63667 8.13264 4.12849L7.09274 5.62954C6.68772 6.21417 6.00587 6.56534 5.27571 6.56534C3.46658 6.56534 2 7.97665 2 9.71758V16.5948C2 18.0413 2.74966 19.3328 3.91196 20.088M17.6869 6.31309L13.6834 10.3166M13.6834 10.3166C13.1894 10.0406 12.6141 9.88235 12 9.88235C10.1591 9.88235 8.66667 11.3045 8.66667 13.0588C8.66667 13.6988 8.86524 14.2945 9.20688 14.7931M13.6834 10.3166L9.20688 14.7931M9.20688 14.7931L3.91196 20.088M21.7467 8.5C21.9099 8.87461 22 9.28597 22 9.71758V16.5948C22 18.7921 20.2703 20.6315 17.992 20.7775C16.1644 20.8947 13.9727 21 12 21C11.0298 21 10.0067 20.9745 9 20.9347" stroke="#0B0D12" stroke-width="2" stroke-linecap="round" stroke-linejoin="round"/>
</svg>
