<svg width="24" height="24" viewBox="0 0 24 24" fill="none" xmlns="http://www.w3.org/2000/svg">
<path d="M16.2512 16.4444H19.7778C21.0051 16.4444 22 15.4495 22 14.2222V9.22222C22 5.2335 18.7665 2 14.7778 2C11.3065 2 8.40722 4.44896 7.7134 7.7134M16.2512 16.4444C16.3776 15.9094 16.4444 15.3514 16.4444 14.7778C16.4444 10.7891 13.2109 7.55556 9.22222 7.55556C8.70477 7.55556 8.20002 7.60997 7.7134 7.7134M16.2512 16.4444C15.4988 19.6297 12.6373 22 9.22222 22H4.22222C2.99492 22 2 21.0051 2 19.7778V14.7778C2 11.3065 4.44896 8.40722 7.7134 7.7134" stroke="#0B0D12" stroke-width="2" stroke-linecap="round" stroke-linejoin="round"/>
</svg>
