<svg width="24" height="24" viewBox="0 0 24 24" fill="none" xmlns="http://www.w3.org/2000/svg">
<path d="M16.2866 16.2866C16.5256 16.2358 16.7602 16.1732 16.9898 16.0994C17.7053 15.8694 18.4622 15.7369 19.1991 15.8843L20.5291 16.1503C21.2289 16.2902 21.8458 15.6733 21.7058 14.9736L21.4398 13.6435C21.2924 12.9066 21.425 12.1497 21.655 11.4342C21.879 10.7371 22 9.9938 22 9.22222C22 5.2335 18.7665 2 14.7778 2C11.3065 2 8.40722 4.44896 7.7134 7.7134M16.2866 16.2866C16.39 15.8 16.4444 15.2952 16.4444 14.7778C16.4444 10.7891 13.2109 7.55556 9.22222 7.55556C8.70477 7.55556 8.20002 7.60997 7.7134 7.7134M16.2866 16.2866C15.5928 19.551 12.6935 22 9.22222 22C8.45064 22 7.70733 21.879 7.0102 21.655C6.29472 21.425 5.53785 21.2924 4.80091 21.4398L3.47087 21.7058C2.77115 21.8458 2.15423 21.2289 2.29417 20.5291L2.56018 19.1991C2.70757 18.4622 2.575 17.7053 2.34504 16.9898C2.12099 16.2927 2 15.5494 2 14.7778C2 11.3065 4.44896 8.40722 7.7134 7.7134" stroke="#0B0D12" stroke-width="2" stroke-linecap="round" stroke-linejoin="round"/>
</svg>
