<svg width="24" height="24" viewBox="0 0 24 24" fill="none" xmlns="http://www.w3.org/2000/svg">
<path d="M16.9382 18.8027L19.2883 14.7462C19.721 13.9994 20.628 13.7757 21.3143 14.2465C22.0005 14.7173 22.2061 15.7044 21.7735 16.4511L19.4233 20.5076C18.558 22.0012 16.7439 22.4486 15.3714 21.507C13.9989 20.5654 13.5877 18.5913 14.453 17.0977L16.0198 14.3934M7.42857 4.22222C5.53502 4.22222 4 5.71461 4 7.55556V18.6667C4 20.5076 5.53502 22 7.42857 22H10M15.4286 4.22222V3.11111C15.4286 2.49746 14.9169 2 14.2857 2H9.71429C9.0831 2 8.57143 2.49746 8.57143 3.11111V5.33333C8.57143 5.94698 9.0831 6.44444 9.71429 6.44444H14.2857C14.9169 6.44444 15.4286 5.94698 15.4286 5.33333V4.22222ZM15.4286 4.22222H16.5714C18.465 4.22222 20 5.71461 20 7.55556V10.1111" stroke="#0B0D12" stroke-width="2" stroke-linecap="round" stroke-linejoin="round"/>
</svg>
