<svg width="24" height="24" viewBox="0 0 24 24" fill="none" xmlns="http://www.w3.org/2000/svg">
<path d="M7.42857 4.22222C5.53502 4.22222 4 5.71461 4 7.55556V18.6667C4 20.5076 5.53502 22 7.42857 22H16.5714C18.465 22 20 20.5076 20 18.6667V7.55556C20 5.71461 18.465 4.22222 16.5714 4.22222H15.4286M15.4286 4.22222V3.11111C15.4286 2.49746 14.9169 2 14.2857 2H9.71429C9.0831 2 8.57143 2.49746 8.57143 3.11111V5.33333C8.57143 5.94698 9.0831 6.44444 9.71429 6.44444H14.2857C14.9169 6.44444 15.4286 5.94698 15.4286 5.33333V4.22222Z" stroke="#0B0D12" stroke-width="2" stroke-linecap="round" stroke-linejoin="round"/>
</svg>
