<svg width="24" height="24" viewBox="0 0 24 24" fill="none" xmlns="http://www.w3.org/2000/svg">
<path d="M19.7324 17H20.5C21.3284 17 22 17.6716 22 18.5V20.5C22 21.3284 21.3284 22 20.5 22H15.5C14.6716 22 14 21.3284 14 20.5V18.5C14 17.6716 14.6716 17 15.5 17H16.2676M19.7324 17C19.9026 16.7058 20 16.3643 20 16C20 14.8954 19.1046 14 18 14C16.8954 14 16 14.8954 16 16C16 16.3643 16.0974 16.7058 16.2676 17M19.7324 17H16.2676M7.42857 4.22222C5.53502 4.22222 4 5.71461 4 7.55556V18.6667C4 20.5076 5.53502 22 7.42857 22H10M15.4286 4.22222V3.11111C15.4286 2.49746 14.9169 2 14.2857 2H9.71429C9.0831 2 8.57143 2.49746 8.57143 3.11111V5.33333C8.57143 5.94698 9.0831 6.44444 9.71429 6.44444H14.2857C14.9169 6.44444 15.4286 5.94698 15.4286 5.33333V4.22222ZM15.4286 4.22222H16.5714C18.465 4.22222 20 5.71461 20 7.55556V10.1111" stroke="#0B0D12" stroke-width="2" stroke-linecap="round" stroke-linejoin="round"/>
</svg>
