<svg width="24" height="24" viewBox="0 0 24 24" fill="none" xmlns="http://www.w3.org/2000/svg">
<path d="M9 21.9999H12M12 21.9999H15M12 21.9999V15.9999M12 15.9999H10.6241C9.72715 15.9999 9 15.2727 9 14.3757C9 13.5818 8.42601 12.9042 7.64286 12.7737L6.3424 12.5569C4.41365 12.2355 3 10.5667 3 8.61137M12 15.9999H13.3759C14.2728 15.9999 15 15.2727 15 14.3757C15 13.5818 15.574 12.9042 16.3571 12.7737L17.6576 12.5569C19.5863 12.2355 21 10.5667 21 8.61137M3 8.61137V5.49988C3 4.67145 3.67157 3.99988 4.5 3.99988H19.5C20.3284 3.99988 21 4.67145 21 5.49988V8.61137M3 8.61137C4.577 7.74222 6.31041 6.38613 8.12794 7.47665L9 7.99988M21 8.61137C19.3852 7.70968 18.0591 6.75183 16.2577 7.78121C14.9548 8.5257 13.2736 7.9376 11.8508 7.84692M11.5607 7.43922L17 2M12 8.49988C12 9.32831 11.3284 9.99988 10.5 9.99988C9.67157 9.99988 9 9.32831 9 8.49988C9 7.67145 9.67157 6.99988 10.5 6.99988C11.3284 6.99988 12 7.67145 12 8.49988Z" stroke="#0B0D12" stroke-width="2" stroke-linecap="round"/>
</svg>
