<svg width="24" height="24" viewBox="0 0 24 24" fill="none" xmlns="http://www.w3.org/2000/svg">
<path d="M5 18C6.10457 18 7 18.8954 7 20C7 21.1046 6.10457 22 5 22C3.89543 22 3 21.1046 3 20C3 18.8954 3.89543 18 5 18ZM5 18V6M5 6C3.89543 6 3 5.10457 3 4C3 2.89543 3.89543 2 5 2C6.10457 2 7 2.89543 7 4C7 5.10457 6.10457 6 5 6ZM19 18C20.1046 18 21 18.8954 21 20C21 21.1046 20.1046 22 19 22C17.8954 22 17 21.1046 17 20C17 18.8954 17.8954 18 19 18ZM19 18V7C19 5.89543 18.1046 5 17 5H11.5M11.5 5L14 2.5M11.5 5L14 7.5" stroke="#0B0D12" stroke-width="2" stroke-linecap="round" stroke-linejoin="round"/>
</svg>
