<svg width="24" height="24" viewBox="0 0 24 24" fill="none" xmlns="http://www.w3.org/2000/svg">
<path d="M16.4449 10.8889C17.1423 9.96038 17.5556 8.80623 17.5556 7.55556C17.5556 4.48731 15.0682 2 12 2C8.93175 2 6.44444 4.48731 6.44444 7.55556C6.44444 8.80623 6.85812 9.96038 7.55556 10.8889M16.4449 10.8889C15.4313 12.2383 13.8176 13.1111 12 13.1111M16.4449 10.8889V10.8889ZM16.4449 10.8889C19.5129 10.8891 22 13.3763 22 16.4444C22 19.5127 19.5127 22 16.4444 22C14.6271 22 13.0136 21.1274 12 19.7783M12 13.1111C12.6974 14.0396 13.1111 15.1938 13.1111 16.4444C13.1111 19.5127 10.6238 22 7.55556 22C4.48731 22 2 19.5127 2 16.4444C2 13.3762 4.48731 10.8889 7.55556 10.8889M12 13.1111C10.1824 13.1111 8.56912 12.2383 7.55556 10.8889" stroke="#0B0D12" stroke-width="2" stroke-linecap="round" stroke-linejoin="round"/>
</svg>
