<svg width="24" height="24" viewBox="0 0 24 24" fill="none" xmlns="http://www.w3.org/2000/svg">
<path d="M16.4444 7.55556H10.8889C9.04794 7.55556 7.55556 9.04794 7.55556 10.8889V16.4444M16.4444 7.55556H18.6667C20.5076 7.55556 22 9.04794 22 10.8889V18.6667C22 20.5076 20.5076 22 18.6667 22H10.8889C9.04794 22 7.55556 20.5076 7.55556 18.6667V16.4444M16.4444 7.55556V5.33333C16.4444 3.49238 14.9521 2 13.1111 2H5.33333C3.49238 2 2 3.49238 2 5.33333V13.1111C2 14.9521 3.49238 16.4444 5.33333 16.4444H7.55556" stroke="#0B0D12" stroke-width="2" stroke-linecap="round" stroke-linejoin="round"/>
</svg>
