<svg width="24" height="24" viewBox="0 0 24 24" fill="none" xmlns="http://www.w3.org/2000/svg">
<path d="M12 16.4444H12.01M12 12.5556V7.55556M8.47603 2H15.524C16.1133 2 16.6786 2.23413 17.0953 2.65087L21.3491 6.90468C21.7659 7.32143 22 7.88666 22 8.47603V15.524C22 16.1133 21.7659 16.6786 21.3491 17.0953L17.0953 21.3491C16.6786 21.7659 16.1133 22 15.524 22H8.47603C7.88666 22 7.32143 21.7659 6.90468 21.3491L2.65087 17.0953C2.23413 16.6786 2 16.1133 2 15.524V8.47603C2 7.88666 2.23413 7.32143 2.65087 6.90468L6.90468 2.65087C7.32143 2.23413 7.88666 2 8.47603 2Z" stroke="#0B0D12" stroke-width="2" stroke-linecap="round" stroke-linejoin="round"/>
</svg>
