<svg width="24" height="24" viewBox="0 0 24 24" fill="none" xmlns="http://www.w3.org/2000/svg">
<path d="M10.5 4.00006H6C3.79086 4.00006 2 5.79092 2 8.00006V18.0001C2 20.2092 3.79086 22.0001 6 22.0001H16C18.2091 22.0001 20 20.2092 20 18.0001V13.5001M15 5.00006L8.29289 11.7072C8.10536 11.8947 8 12.1491 8 12.4143V15.0001C8 15.5523 8.44772 16.0001 9 16.0001H11.5858C11.851 16.0001 12.1054 15.8947 12.2929 15.7072L19 9.00006M15 5.00006L16 4.00006C17.1046 2.89549 18.8954 2.89549 20 4.00006C21.1046 5.10463 21.1046 6.89549 20 8.00006L19 9.00006M15 5.00006L19 9.00006" stroke="#0B0D12" stroke-width="2" stroke-linecap="round" stroke-linejoin="round"/>
</svg>
