<svg width="24" height="24" viewBox="0 0 24 24" fill="none" xmlns="http://www.w3.org/2000/svg">
<path d="M16.7155 14.7229C16.992 14.2449 16.8286 13.6332 16.3506 13.3566C15.8725 13.0801 15.2608 13.2434 14.9843 13.7215L16.7155 14.7229ZM9.01575 13.7215C8.73921 13.2434 8.12748 13.0801 7.64942 13.3566C7.17136 13.6332 7.00799 14.2449 7.28454 14.7229L9.01575 13.7215ZM10 8C10 7.44772 9.55228 7 9 7C8.44772 7 8 7.44772 8 8H10ZM8 10C8 10.5523 8.44772 11 9 11C9.55228 11 10 10.5523 10 10H8ZM16 8C16 7.44772 15.5523 7 15 7C14.4477 7 14 7.44772 14 8H16ZM14 10C14 10.5523 14.4477 11 15 11C15.5523 11 16 10.5523 16 10H14ZM21 12C21 16.9706 16.9706 21 12 21V23C18.0751 23 23 18.0751 23 12H21ZM12 21C7.02944 21 3 16.9706 3 12H1C1 18.0751 5.92487 23 12 23V21ZM3 12C3 7.02944 7.02944 3 12 3V1C5.92487 1 1 5.92487 1 12H3ZM12 3C16.9706 3 21 7.02944 21 12H23C23 5.92487 18.0751 1 12 1V3ZM14.9843 13.7215C14.3872 14.7537 13.2737 15.4444 12 15.4444V17.4444C14.0165 17.4444 15.7756 16.3477 16.7155 14.7229L14.9843 13.7215ZM12 15.4444C10.7263 15.4444 9.61282 14.7537 9.01575 13.7215L7.28454 14.7229C8.2244 16.3477 9.98353 17.4444 12 17.4444V15.4444ZM8 8V10H10V8H8ZM14 8V10H16V8H14Z" fill="#0B0D12"/>
</svg>
