<svg width="24" height="24" viewBox="0 0 24 24" fill="none" xmlns="http://www.w3.org/2000/svg">
<path d="M14.9843 16.9452C15.2608 17.4232 15.8725 17.5866 16.3506 17.3101C16.8286 17.0335 16.992 16.4218 16.7155 15.9437L14.9843 16.9452ZM7.28454 15.9437C7.00799 16.4218 7.17136 17.0335 7.64942 17.3101C8.12748 17.5866 8.73921 17.4232 9.01575 16.9452L7.28454 15.9437ZM10 8C10 7.44772 9.55228 7 9 7C8.44772 7 8 7.44772 8 8H10ZM8 10C8 10.5523 8.44772 11 9 11C9.55228 11 10 10.5523 10 10H8ZM16 8C16 7.44772 15.5523 7 15 7C14.4477 7 14 7.44772 14 8H16ZM14 10C14 10.5523 14.4477 11 15 11C15.5523 11 16 10.5523 16 10H14ZM21 12C21 16.9706 16.9706 21 12 21V23C18.0751 23 23 18.0751 23 12H21ZM12 21C7.02944 21 3 16.9706 3 12H1C1 18.0751 5.92487 23 12 23V21ZM3 12C3 7.02944 7.02944 3 12 3V1C5.92487 1 1 5.92487 1 12H3ZM12 3C16.9706 3 21 7.02944 21 12H23C23 5.92487 18.0751 1 12 1V3ZM16.7155 15.9437C15.7756 14.319 14.0165 13.2222 12 13.2222V15.2222C13.2737 15.2222 14.3872 15.913 14.9843 16.9452L16.7155 15.9437ZM12 13.2222C9.98353 13.2222 8.2244 14.319 7.28454 15.9437L9.01575 16.9452C9.61282 15.913 10.7263 15.2222 12 15.2222V13.2222ZM8 8V10H10V8H8ZM14 8V10H16V8H14Z" fill="#0B0D12"/>
</svg>
