<svg width="24" height="24" viewBox="0 0 24 24" fill="none" xmlns="http://www.w3.org/2000/svg">
<path d="M21.8825 6.46755C21.4216 4.47989 19.6593 3 17.5556 3H6.44444C4.34073 3 2.57839 4.47989 2.11753 6.46755M21.8825 6.46755C21.9593 6.79908 22 7.14473 22 7.5V16.5C22 17.0587 21.8995 17.5936 21.7157 18.0871M21.8825 6.46755L15.3333 11.625M2.11753 6.46755C2.04066 6.79908 2 7.14473 2 7.5V16.5C2 17.0587 2.10055 17.5936 2.28432 18.0871M2.11753 6.46755L8.66667 11.625M8.66667 11.625L10.6357 13.1756C11.4382 13.8075 12.5618 13.8075 13.3643 13.1756L15.3333 11.625M8.66667 11.625L2.28432 18.0871M2.28432 18.0871C2.91808 19.7893 4.54161 21 6.44444 21H17.5556C19.4584 21 21.0819 19.7893 21.7157 18.0871M15.3333 11.625L21.7157 18.0871" stroke="#0B0D12" stroke-width="2" stroke-linecap="round" stroke-linejoin="round"/>
</svg>
