<svg width="24" height="24" viewBox="0 0 24 24" fill="none" xmlns="http://www.w3.org/2000/svg">
<path d="M21 3L17.5309 6.46912M3 21L6.46912 17.5309M6.46912 17.5309C4.61542 16.0652 3.15899 14.2184 2.34747 13.0733C1.88418 12.4197 1.88418 11.5803 2.34747 10.9267C3.85969 8.79299 7.61134 4.22222 12 4.22222C14.0335 4.22222 15.9303 5.20358 17.5309 6.46912M6.46912 17.5309L9.64298 14.357M9.64298 14.357C9.03976 13.7538 8.66667 12.9205 8.66667 12C8.66667 10.1591 10.1591 8.66667 12 8.66667C12.9205 8.66667 13.7538 9.03976 14.357 9.64298M9.64298 14.357L14.357 9.64298M14.357 9.64298L17.5309 6.46912M9.77778 19.4003C10.4937 19.6397 11.2372 19.7778 12 19.7778C16.3887 19.7778 20.1403 15.207 21.6525 13.0733C22.1158 12.4197 22.1158 11.5803 21.6525 10.9267C21.3171 10.4534 20.8716 9.86031 20.3333 9.22377" stroke="#0B0D12" stroke-width="2" stroke-linecap="round" stroke-linejoin="round"/>
</svg>
