<svg width="24" height="24" viewBox="0 0 24 24" fill="none" xmlns="http://www.w3.org/2000/svg">
<path d="M22 7.55556V5.33333C22 3.49238 20.5076 2 18.6667 2H16.4444M7.55556 2H5.33333C3.49238 2 2 3.49238 2 5.33333V7.55556M2 16.4444V18.6667C2 20.5076 3.49238 22 5.33333 22H7.55556M16.4444 22H18.6667C20.5076 22 22 20.5076 22 18.6667M7.55556 7.55556V9.77778M16.4444 7.55556V9.77778M7.55556 16.4444C10.3534 17.8434 13.6466 17.8434 16.4444 16.4444M12 8.66667V11.0795C12 11.6689 11.7659 12.2341 11.3491 12.6509L11.1667 12.8333" stroke="#0B0D12" stroke-width="2" stroke-linecap="round" stroke-linejoin="round"/>
</svg>
