<svg width="24" height="24" viewBox="0 0 24 24" fill="none" xmlns="http://www.w3.org/2000/svg">
<path d="M20.9749 20.9749C21.6082 20.3415 22 19.4665 22 18.5C22 16.567 20.433 15 18.5 15C17.5335 15 16.6585 15.3918 16.0251 16.0251M20.9749 20.9749C20.3415 21.6082 19.4665 22 18.5 22C16.567 22 15 20.433 15 18.5C15 17.5335 15.3918 16.6585 16.0251 16.0251M20.9749 20.9749L16.0251 16.0251M13.1429 2H7C5.34315 2 4 3.34315 4 5V19C4 20.6569 5.34315 22 7 22H12M13.1429 2V7.16667C13.1429 7.9951 13.8144 8.66667 14.6429 8.66667H20M13.1429 2H13.6767C14.0672 2 14.4424 2.15229 14.7224 2.42451L19.5456 7.1138C19.8361 7.39622 20 7.78414 20 8.18929V8.66667M20 8.66667V11" stroke="#0B0D12" stroke-width="2" stroke-linecap="round" stroke-linejoin="round"/>
</svg>
