<svg width="24" height="24" viewBox="0 0 24 24" fill="none" xmlns="http://www.w3.org/2000/svg">
<path d="M19.7324 17H20.5C21.3284 17 22 17.6716 22 18.5V20.5C22 21.3284 21.3284 22 20.5 22H15.5C14.6716 22 14 21.3284 14 20.5V18.5C14 17.6716 14.6716 17 15.5 17H16.2676M19.7324 17C19.9026 16.7058 20 16.3643 20 16C20 14.8954 19.1046 14 18 14C16.8954 14 16 14.8954 16 16C16 16.3643 16.0974 16.7058 16.2676 17M19.7324 17H16.2676M13.1429 2H7C5.34315 2 4 3.34315 4 5V19C4 20.6569 5.34315 22 7 22H10M13.1429 2V7.16667C13.1429 7.9951 13.8144 8.66667 14.6429 8.66667H20M13.1429 2H13.6767C14.0672 2 14.4424 2.15229 14.7224 2.42451L19.5456 7.1138C19.8361 7.39622 20 7.78414 20 8.18929V8.66667M20 8.66667V10" stroke="#0B0D12" stroke-width="2" stroke-linecap="round" stroke-linejoin="round"/>
</svg>
