<svg width="24" height="24" viewBox="0 0 24 24" fill="none" xmlns="http://www.w3.org/2000/svg">
<path d="M6.44444 2H6C3.79086 2 2 3.79086 2 6V7.55556M6.44444 2H18C20.2091 2 22 3.79086 22 6V12M6.44444 2V7.55556M6.44444 22H18C20.2091 22 22 20.2091 22 18V12M6.44444 22H6C3.79086 22 2 20.2091 2 18V12M6.44444 22V12M17.5556 2V12M17.5556 22V12M6.44444 12H17.5556M6.44444 12H2M6.44444 12V7.55556M17.5556 12H22M2 12V7.55556M2 7.55556H6.44444M2 16.4444H6.44444M17.5556 16.4444H22M17.5556 7.55556H22" stroke="#0B0D12" stroke-width="2" stroke-linecap="round" stroke-linejoin="round"/>
</svg>
