<svg width="24" height="24" viewBox="0 0 24 24" fill="none" xmlns="http://www.w3.org/2000/svg">
<path d="M20.9749 20.9749C21.6082 20.3415 22 19.4665 22 18.5C22 16.567 20.433 15 18.5 15C17.5335 15 16.6585 15.3918 16.0251 16.0251M20.9749 20.9749C20.3415 21.6082 19.4665 22 18.5 22C16.567 22 15 20.433 15 18.5C15 17.5335 15.3918 16.6585 16.0251 16.0251M20.9749 20.9749L16.0251 16.0251M22 10.8889C22 8.43429 20.0102 6.44444 17.5556 6.44444H15.4017C14.0555 6.44444 12.8821 5.52824 12.5556 4.22222C12.2291 2.91621 11.0556 2 9.70939 2H6.44444C3.98985 2 2 3.98985 2 6.44444V17.5556C2 20.0102 3.98985 22 6.44444 22H12M7.55556 16.4444H12" stroke="#0B0D12" stroke-width="2" stroke-linecap="round" stroke-linejoin="round"/>
</svg>
