<svg width="24" height="24" viewBox="0 0 24 24" fill="none" xmlns="http://www.w3.org/2000/svg">
<path d="M20 22V22.01M18 16.5C18 16.1357 18.0974 15.7942 18.2676 15.5C18.6134 14.9022 19.2597 14.5 20 14.5C21.1046 14.5 22 15.3954 22 16.5C22 17.6046 21.1046 18.5 20 18.5V19M22 10.8889C22 8.43429 20.0102 6.44444 17.5556 6.44444H15.4017C14.0555 6.44444 12.8821 5.52824 12.5556 4.22222C12.2291 2.91621 11.0556 2 9.70939 2H6.44444C3.98985 2 2 3.98985 2 6.44444V17.5556C2 20.0102 3.98985 22 6.44444 22H12M7.55556 16.4444H12" stroke="#0B0D12" stroke-width="2" stroke-linecap="round" stroke-linejoin="round"/>
</svg>
