<svg width="24" height="24" viewBox="0 0 24 24" fill="none" xmlns="http://www.w3.org/2000/svg">
<path d="M19.7324 17H20.5C21.3284 17 22 17.6716 22 18.5V20.5C22 21.3284 21.3284 22 20.5 22H15.5C14.6716 22 14 21.3284 14 20.5V18.5C14 17.6716 14.6716 17 15.5 17H16.2676M19.7324 17C19.9026 16.7058 20 16.3643 20 16C20 14.8954 19.1046 14 18 14C16.8954 14 16 14.8954 16 16C16 16.3643 16.0974 16.7058 16.2676 17M19.7324 17H16.2676M22 10.8889C22 8.43429 20.0102 6.44444 17.5556 6.44444H15.4017C14.0555 6.44444 12.8821 5.52824 12.5556 4.22222C12.2291 2.91621 11.0556 2 9.70939 2H6.44444C3.98985 2 2 3.98985 2 6.44444V17.5556C2 20.0102 3.98985 22 6.44444 22H10M7.55556 16.4444H10" stroke="#0B0D12" stroke-width="2" stroke-linecap="round" stroke-linejoin="round"/>
</svg>
