<svg width="24" height="24" viewBox="0 0 24 24" fill="none" xmlns="http://www.w3.org/2000/svg">
<path d="M12 22C6.47715 22 2 17.5228 2 12C2 9.43882 2.96285 7.10252 4.54631 5.33333M12 22C12.3756 22 12.7463 21.9793 13.1111 21.939C13.8816 21.8538 14.6258 21.6811 15.3333 21.431M12 22L12.2989 20.2069C12.4628 19.2232 12.217 18.2153 11.6187 17.4175L11.5687 17.3508C11.1274 16.7625 10.8889 16.0469 10.8889 15.3115V14.9348C10.8889 14.4714 11.0337 14.0195 11.3031 13.6424L12.2955 12.253C12.8882 11.4232 14.1641 11.5768 14.5428 12.5237C14.691 12.8942 15.0024 13.1753 15.3861 13.2849L15.858 13.4197C17.287 13.828 17.9548 15.4681 17.2174 16.7584L16.6036 17.8325C16.4978 18.0178 16.4103 18.213 16.3426 18.4154L15.3333 21.431M4.54631 5.33333C6.37738 3.2875 9.03833 2 12 2C13.2618 2 14.4691 2.23371 15.5808 2.6602M4.54631 5.33333L5.05372 5.77887C5.92358 6.54265 6.35847 7.68781 6.21489 8.83646L6.00296 10.5319C5.93541 11.0723 6.23362 11.5922 6.73421 11.8067C7.34507 12.0685 8.05315 11.7942 8.32816 11.1892L8.93448 9.85527C9.12327 9.43992 9.41353 9.07874 9.77852 8.805L10.9062 7.95926C11.2556 7.69721 11.6805 7.55556 12.1173 7.55556H13.1928C14.3452 7.55556 15.0326 6.27115 14.3934 5.31225C13.9812 4.69397 14.1059 3.86375 14.6817 3.39394L15.5808 2.6602M15.3333 21.431C19.2173 20.0582 22 16.3541 22 12C22 7.73898 19.335 4.10041 15.5808 2.6602" stroke="#0B0D12" stroke-width="2" stroke-linecap="round" stroke-linejoin="round"/>
</svg>
