<svg width="24" height="24" viewBox="0 0 24 24" fill="none" xmlns="http://www.w3.org/2000/svg">
<path d="M8.22599 2.28386C4.36082 3.30389 1.8515 6.81998 2.00682 10.5995C2.0485 11.6137 3.09521 12.2001 4.09069 11.9374L10.3994 10.2725M8.22599 2.28386C12.0912 1.26383 16.0493 3.07314 17.8335 6.42276C18.3123 7.32161 17.7035 8.34493 16.708 8.60764L10.3994 10.2725M8.22599 2.28386C6.73277 2.67793 6.49533 6.57402 7.69565 10.986M8.22599 2.28386C9.71922 1.8898 11.9028 5.14698 13.1031 9.55899M10.3994 10.2725L12.2023 17.0013M12.2023 17.0013C12.135 17.0004 12.0676 17 12 17C7.75595 17 4.08926 18.7259 2.36123 20.3121C1.51822 21.0859 2.26244 22 3.4438 22H20.5562C21.7376 22 22.4818 21.0859 21.6388 20.3121C19.9383 18.7511 16.3604 17.0549 12.2023 17.0013Z" stroke="#0B0D12" stroke-width="2" stroke-linecap="round" stroke-linejoin="round"/>
</svg>
