<svg width="24" height="24" viewBox="0 0 24 24" fill="none" xmlns="http://www.w3.org/2000/svg">
<path d="M2 14.5926L19.4074 14.5926C20.8393 14.5926 22 15.7533 22 17.1852V17.1852C22 18.617 20.8393 19.7778 19.4074 19.7778L2 19.7778M2 14.5926L2 19.7778M2 14.5926L2 9.40741M2 14.5926L12.7407 14.5926C14.1726 14.5926 15.3333 13.4318 15.3333 12V12C15.3333 10.5682 14.1726 9.40741 12.7407 9.40741L2 9.40741M2 19.7778L2 22M2 9.40741L2 4.22222M2 9.40741L7.18518 9.40741C8.61703 9.40741 9.77778 8.24666 9.77778 6.81481V6.81481C9.77778 5.38296 8.61703 4.22222 7.18518 4.22222L2 4.22222M2 4.22222L2 2" stroke="#0B0D12" stroke-width="2" stroke-linecap="round" stroke-linejoin="round"/>
</svg>
