<svg width="24" height="24" viewBox="0 0 24 24" fill="none" xmlns="http://www.w3.org/2000/svg">
<path d="M2 9.40741L19.4074 9.40741C20.8393 9.40741 22 8.24666 22 6.81481V6.81481C22 5.38296 20.8393 4.22222 19.4074 4.22222L2 4.22222M2 9.40741L2 4.22222M2 9.40741L2 14.5926M2 9.40741L13.8519 9.40741C15.2837 9.40741 16.4444 10.5682 16.4444 12V12C16.4444 13.4318 15.2837 14.5926 13.8519 14.5926L2 14.5926M2 4.22222L2 2M2 14.5926L2 19.7778M2 14.5926L8.29629 14.5926C9.72814 14.5926 10.8889 15.7533 10.8889 17.1852V17.1852C10.8889 18.617 9.72815 19.7778 8.2963 19.7778L2 19.7778M2 19.7778L2 22" stroke="#0B0D12" stroke-width="2" stroke-linecap="round" stroke-linejoin="round"/>
</svg>
