<svg width="24" height="24" viewBox="0 0 24 24" fill="none" xmlns="http://www.w3.org/2000/svg">
<path d="M2 15.3333L20 15.3333C21.1046 15.3333 22 16.2288 22 17.3333L22 20C22 21.1046 21.1046 22 20 22L4 22C2.89543 22 2 21.1046 2 20L2 15.3333ZM2 15.3333L2 8.66667M2 15.3333L14.4444 15.3333C15.549 15.3333 16.4444 14.4379 16.4444 13.3333L16.4444 10.6667C16.4444 9.5621 15.549 8.66667 14.4444 8.66667L2 8.66667M2 8.66667L2 4C2 2.89543 2.89543 2 4 2L8.88889 2C9.99346 2 10.8889 2.89543 10.8889 4L10.8889 6.66667C10.8889 7.77124 9.99346 8.66667 8.88889 8.66667L2 8.66667Z" stroke="#0B0D12" stroke-width="2" stroke-linecap="round" stroke-linejoin="round"/>
</svg>
