<svg width="24" height="24" viewBox="0 0 24 24" fill="none" xmlns="http://www.w3.org/2000/svg">
<path d="M2.59459 19.7778C2.59459 19.7778 3.56444 17.3022 5.21778 15.94C6.87111 14.5767 8.74556 16.7033 10.8089 16.7033C12.8722 16.7033 14.1089 13 16.2544 13C18.3042 13 20.7479 14.1674 21.8553 15.1924C21.9508 15.2807 22 15.4061 22 15.5362V17.5556C22 20.0102 20.0102 22 17.5556 22H6.44444C3.98985 22 2 20.0102 2 17.5556V6.44444C2 3.98985 3.98985 2 6.44444 2H12M16.9382 6.80268L19.2883 2.74619C19.721 1.99941 20.628 1.77569 21.3143 2.2465C22.0005 2.7173 22.2061 3.70435 21.7735 4.45113L19.4233 8.50762C18.558 10.0012 16.7439 10.4486 15.3714 9.50701C13.9989 8.56539 13.5877 6.5913 14.453 5.09774L16.0198 2.39341M10.8889 8.66667C10.8889 9.89397 9.89397 10.8889 8.66667 10.8889C7.43937 10.8889 6.44444 9.89397 6.44444 8.66667C6.44444 7.43937 7.43937 6.44444 8.66667 6.44444C9.89397 6.44444 10.8889 7.43937 10.8889 8.66667Z" stroke="#0B0D12" stroke-width="2" stroke-linecap="round" stroke-linejoin="round"/>
</svg>
