<svg width="24" height="24" viewBox="0 0 24 24" fill="none" xmlns="http://www.w3.org/2000/svg">
<path d="M21.1213 7.24286L16.8786 3.00022M16.8781 7.2422L21.1211 3M2.59459 19.7778C2.59459 19.7778 3.56444 17.3022 5.21778 15.94C6.87111 14.5767 8.74556 16.7033 10.8089 16.7033C12.8722 16.7033 14.1089 12 16.2544 12C18.3061 12 20.7524 14.085 21.8584 15.1898C21.9504 15.2817 22 15.4061 22 15.5362V17.5556C22 20.0102 20.0102 22 17.5556 22H6.44444C3.98985 22 2 20.0102 2 17.5556V6.44444C2 3.98985 3.98985 2 6.44444 2H12M10.8889 8.66667C10.8889 9.89397 9.89397 10.8889 8.66667 10.8889C7.43937 10.8889 6.44444 9.89397 6.44444 8.66667C6.44444 7.43937 7.43937 6.44444 8.66667 6.44444C9.89397 6.44444 10.8889 7.43937 10.8889 8.66667Z" stroke="#0B0D12" stroke-width="2" stroke-linecap="round" stroke-linejoin="round"/>
</svg>
