<svg width="24" height="24" viewBox="0 0 24 24" fill="none" xmlns="http://www.w3.org/2000/svg">
<path d="M2.59459 19.7778C2.59459 19.7778 3.56444 17.3022 5.21778 15.94C6.87111 14.5767 8.74556 16.7033 10.8089 16.7033C12.8722 16.7033 14.1089 13 16.2544 13C18.3042 13 20.7479 14.1674 21.8553 15.1924C21.9508 15.2807 22 15.4061 22 15.5362V17.5556C22 20.0102 20.0102 22 17.5556 22H6.44444C3.98985 22 2 20.0102 2 17.5556V6.44444C2 3.98985 3.98985 2 6.44444 2H12M20 9.5V9.51M18 4C18 3.63571 18.0974 3.29417 18.2676 3C18.6134 2.4022 19.2597 2 20 2C21.1046 2 22 2.89543 22 4C22 5.10457 21.1046 6 20 6V6.5M10.8889 8.66667C10.8889 9.89397 9.89397 10.8889 8.66667 10.8889C7.43937 10.8889 6.44444 9.89397 6.44444 8.66667C6.44444 7.43937 7.43937 6.44444 8.66667 6.44444C9.89397 6.44444 10.8889 7.43937 10.8889 8.66667Z" stroke="#0B0D12" stroke-width="2" stroke-linecap="round" stroke-linejoin="round"/>
</svg>
