<svg width="24" height="24" viewBox="0 0 24 24" fill="none" xmlns="http://www.w3.org/2000/svg">
<path d="M15.3333 15.3333C19.0152 15.3333 22 12.3486 22 8.66667C22 4.98477 19.0152 2 15.3333 2C11.6514 2 8.66667 4.98477 8.66667 8.66667C8.66667 9.10827 8.7096 9.53985 8.79153 9.95745C8.87044 10.3597 8.77135 10.7842 8.48151 11.074L2.32544 17.2301C2.11706 17.4385 2 17.7211 2 18.0158V22H5.98421C6.27889 22 6.56151 21.8829 6.76988 21.6746L12.926 15.5185C13.2158 15.2287 13.6403 15.1296 14.0426 15.2085C14.4602 15.2904 14.8917 15.3333 15.3333 15.3333Z" stroke="#0B0D12" stroke-width="2" stroke-linecap="round" stroke-linejoin="round"/>
<path d="M17 8.5C17 9.32843 16.3284 10 15.5 10C14.6716 10 14 9.32843 14 8.5C14 7.67157 14.6716 7 15.5 7C16.3284 7 17 7.67157 17 8.5Z" stroke="#0B0D12" stroke-width="2" stroke-linecap="round" stroke-linejoin="round"/>
</svg>
