<svg width="24" height="24" viewBox="0 0 24 24" fill="none" xmlns="http://www.w3.org/2000/svg">
<path d="M21 16V6C21 4.89543 20.1046 4 19 4H5C3.89543 4 3 4.89543 3 6V16M21 16H15.7071C15.2544 16 14.8201 16.1799 14.5 16.5C14.1799 16.8201 13.7456 17 13.2929 17H10.7071C10.2544 17 9.82014 16.8201 9.5 16.5C9.17986 16.1799 8.74565 16 8.29289 16H3M21 16C21.5523 16 22 16.4477 22 17V18C22 19.1046 21.1046 20 20 20H4C2.89543 20 2 19.1046 2 18V17C2 16.4477 2.44772 16 3 16" stroke="#0B0D12" stroke-width="2" stroke-linecap="round" stroke-linejoin="round"/>
</svg>
