<svg width="24" height="24" viewBox="0 0 24 24" fill="none" xmlns="http://www.w3.org/2000/svg">
<path d="M9 7L9 15M15 7V15M9 22V20M15 22V20M10 20H14C16.8284 20 18.2426 20 19.1213 19.1213C20 18.2426 20 16.8284 20 14V8C20 5.17157 20 3.75736 19.1213 2.87868C18.2426 2 16.8284 2 14 2H10C7.17157 2 5.75736 2 4.87868 2.87868C4 3.75736 4 5.17157 4 8V14C4 16.8284 4 18.2426 4.87868 19.1213C5.75736 20 7.17157 20 10 20Z" stroke="#0B0D12" stroke-width="2" stroke-linecap="round" stroke-linejoin="round"/>
</svg>
