<svg width="24" height="24" viewBox="0 0 24 24" fill="none" xmlns="http://www.w3.org/2000/svg">
<path d="M18 14.1066C20.2091 14.1066 22 12.343 22 10.1675C22 7.99198 20.2091 6.22838 18 6.22838M2 12.8908V9.16748C2 6.99198 3.79086 5.22838 6 5.22838H9.40661C10.4508 5.22838 11.4769 4.96004 12.3834 4.44988L16.5039 2.13121C17.1705 1.75606 18 2.2301 18 2.98623V17.3487C18 18.1049 17.1705 18.5789 16.5039 18.2038L11.1822 15.2091C11.0628 15.1419 10.9277 15.1066 10.7902 15.1066C10.3538 15.1066 10 15.455 10 15.8847V19.5381C10 20.8978 8.88071 22 7.5 22C6.11929 22 5 20.8978 5 19.5381V15.8452C5 15.4373 4.66421 15.1066 4.25 15.1066C3.00736 15.1066 2 14.1146 2 12.8908Z" stroke="#0B0D12" stroke-width="2" stroke-linecap="round" stroke-linejoin="round"/>
</svg>
