<svg width="24" height="24" viewBox="0 0 24 24" fill="none" xmlns="http://www.w3.org/2000/svg">
<path d="M2 14C2 18.4183 5.58172 22 10 22C13.8433 22 17.0537 19.284 17.8241 15.674C17.9285 15.1848 17.2624 14.9384 16.8837 15.2651C15.8715 16.1385 14.553 16.6667 13.1111 16.6667C9.92013 16.6667 7.33333 14.0799 7.33333 10.8889C7.33333 9.44704 7.86148 8.12854 8.73487 7.11631C9.06161 6.73762 8.81518 6.07151 8.32603 6.1759C4.716 6.94633 2 10.1567 2 14Z" stroke="#0B0D12" stroke-width="2" stroke-linecap="round"/>
<path d="M17.5962 2.24648C17.7651 1.91784 18.2349 1.91784 18.4038 2.24648L19.4741 4.32962C19.5174 4.41395 19.5861 4.4826 19.6704 4.52592L21.7535 5.59624C22.0822 5.7651 22.0822 6.2349 21.7535 6.40376L19.6704 7.47407C19.5861 7.5174 19.5174 7.58605 19.4741 7.67038L18.4038 9.75352C18.2349 10.0822 17.7651 10.0822 17.5962 9.75352L16.5259 7.67038C16.4826 7.58605 16.4139 7.5174 16.3296 7.47407L14.2465 6.40376C13.9178 6.2349 13.9178 5.7651 14.2465 5.59624L16.3296 4.52592C16.4139 4.4826 16.4826 4.41395 16.5259 4.32962L17.5962 2.24648Z" stroke="#0B0D12" stroke-width="2" stroke-linecap="round"/>
</svg>
