<svg width="24" height="24" viewBox="0 0 24 24" fill="none" xmlns="http://www.w3.org/2000/svg">
<path d="M5.88889 10.8889H6.5M8.11111 7.55556L8.55556 8M15.8889 7.55556L15.5 7.94445M12 6.44444V7M10.3333 17.5556V16.75M7 14.7778L7.5 14.2778M12 22C6.47715 22 2 17.5228 2 12C2 6.47715 6.47715 2 12 2C17.5228 2 22 6.47715 22 12C22 12.2934 21.9874 12.5839 21.9626 12.871C21.8325 14.3791 20.4189 15.3333 18.9051 15.3333C16.9325 15.3333 15.3333 16.9325 15.3333 18.9051C15.3333 20.4189 14.3791 21.8325 12.871 21.9626C12.5839 21.9874 12.2934 22 12 22Z" stroke="#0B0D12" stroke-width="2" stroke-linecap="round" stroke-linejoin="round"/>
</svg>
