<svg width="24" height="24" viewBox="0 0 24 24" fill="none" xmlns="http://www.w3.org/2000/svg">
<path d="M10.362 22C14.2173 22 17.4632 19.391 18.4304 15.8423C18.7543 14.6541 17.7257 13.638 16.4942 13.638H12.0344C11.1108 13.638 10.362 12.8892 10.362 11.9656V7.50584C10.362 6.27432 9.34588 5.24571 8.1577 5.56957C4.60899 6.53682 2 9.78272 2 13.638C2 18.2562 5.7438 22 10.362 22Z" stroke="#0B0D12" stroke-width="2" stroke-linecap="round" stroke-linejoin="round"/>
<path d="M21.9903 8.62409C21.5025 5.20337 18.7966 2.49753 15.3759 2.00973C14.7663 1.9228 14.2643 2.43034 14.2643 3.0461V8.62078C14.2643 9.23654 14.7635 9.73571 15.3792 9.73571H20.9539C21.5697 9.73571 22.0772 9.23368 21.9903 8.62409Z" stroke="#0B0D12" stroke-width="2" stroke-linecap="round" stroke-linejoin="round"/>
</svg>
