<svg width="24" height="24" viewBox="0 0 24 24" fill="none" xmlns="http://www.w3.org/2000/svg">
<path d="M5.15789 12C3.41384 12 2 10.5866 2 8.84299C2 7.97121 2.35346 7.18196 2.92493 6.61065M5.15789 13.1833V10.039C5.15789 7.65784 7.04301 5.72753 9.36842 5.72753H13.4002C13.8833 5.72753 14.3562 5.58463 14.7619 5.31602L16.3852 4.24133C17.3539 3.59998 18.6316 4.31203 18.6316 5.49327C18.6316 5.64849 18.6553 5.80275 18.7017 5.95049L19.4641 8.37328C19.6371 8.923 20.1367 9.29564 20.7008 9.29564C21.4183 9.29564 22 9.89128 22 10.626V12.7507C22 13.7985 21.1705 14.6478 20.1473 14.6478C19.8962 14.6478 19.6558 14.7522 19.4813 14.9371L17.4122 17.1288C17.114 17.4447 16.9474 17.8668 16.9474 18.3061C16.9474 19.2416 16.2068 20 15.2932 20H14.4501C13.969 20 13.5789 19.6006 13.5789 19.108C13.5789 18.6153 13.1889 18.2159 12.7078 18.2159H11.0817C10.6006 18.2159 10.2105 18.6153 10.2105 19.108C10.2105 19.6006 9.8205 20 9.33938 20H8.52632C7.59615 20 6.84211 19.2279 6.84211 18.2754V17.6569C6.84211 17.244 6.73556 16.8385 6.53326 16.4813L5.58411 14.8056C5.30493 14.3127 5.15789 13.753 5.15789 13.1833Z" stroke="#0B0D12" stroke-width="2" stroke-linecap="round"/>
</svg>
