<svg width="24" height="24" viewBox="0 0 24 24" fill="none" xmlns="http://www.w3.org/2000/svg">
<path d="M15.8265 14H18.5296C19.4044 14 20.1777 14.5685 20.4386 15.4035L21.8914 20.0526C22.1933 21.0185 21.4717 22 20.4597 22H3.54029C2.52833 22 1.80673 21.0185 2.10857 20.0526L3.56143 15.4035C3.82235 14.5685 4.59562 14 5.47039 14H8.17353M15.8265 14C17.0436 12.211 18 10.2947 18 8.44143C18 4.88393 15.3137 2 12 2C8.6863 2 6.00001 4.88393 6.00001 8.44143C6.00001 10.2947 6.95639 12.211 8.17353 14M15.8265 14C15.0033 15.2099 14.0609 16.3615 13.2144 17.3959L13.187 17.4294C12.5644 18.1902 11.4356 18.1902 10.813 17.4294L10.7856 17.3959C9.93907 16.3615 8.99667 15.2099 8.17353 14M14 8C14 9.10457 13.1046 10 12 10C10.8954 10 10 9.10457 10 8C10 6.89543 10.8954 6 12 6C13.1046 6 14 6.89543 14 8Z" stroke="#0B0D12" stroke-width="2" stroke-linecap="round" stroke-linejoin="round"/>
</svg>
