<svg width="24" height="24" viewBox="0 0 24 24" fill="none" xmlns="http://www.w3.org/2000/svg">
<path d="M18 6C20.2091 6 22 7.79086 22 10V14C22 16.2091 20.2091 18 18 18H17M18 6V4C18 2.89543 17.1046 2 16 2H8C6.89543 2 6 2.89543 6 4V6M18 6H6M6 6C3.79086 6 2 7.79086 2 10V14C2 16.2091 3.79086 18 6 18H7M7 18V20C7 21.1046 7.89543 22 9 22H15C16.1046 22 17 21.1046 17 20V18M7 18V16C7 14.8954 7.89543 14 9 14H15C16.1046 14 17 14.8954 17 16V18M16.5 9.5C17.6046 9.5 18.5 10.3954 18.5 11.5" stroke="#0B0D12" stroke-width="2" stroke-linecap="round" stroke-linejoin="round"/>
</svg>
