<svg width="24" height="24" viewBox="0 0 24 24" fill="none" xmlns="http://www.w3.org/2000/svg">
<path d="M9.80607 9.83233C9.80607 8.63516 10.7883 7.66466 12 7.66466C13.2117 7.66466 14.1939 8.63516 14.1939 9.83233C14.1939 10.6529 13.7325 11.367 13.052 11.735C12.5205 12.0225 12 12.4852 12 13.0838M12 16.3353V16.4437M2.5 9.70959V14.2904C2.5 16.2265 3.5454 18.0155 5.24241 18.9836L9.25759 21.274C10.9546 22.242 13.0454 22.242 14.7424 21.274L18.7576 18.9836C20.4546 18.0155 21.5 16.2265 21.5 14.2904V9.70959C21.5 7.7735 20.4546 5.98449 18.7576 5.01644L14.7424 2.72603C13.0454 1.75799 10.9546 1.75799 9.25759 2.72603L5.24241 5.01644C3.5454 5.98449 2.5 7.7735 2.5 9.70959Z" stroke="#0B0D12" stroke-width="2" stroke-linecap="round" stroke-linejoin="round"/>
</svg>
