<svg width="24" height="24" viewBox="0 0 24 24" fill="none" xmlns="http://www.w3.org/2000/svg">
<path d="M9.77778 9.77778C9.77778 8.55048 10.7727 7.55556 12 7.55556C13.2273 7.55556 14.2222 8.55048 14.2222 9.77778C14.2222 10.619 13.7548 11.351 13.0655 11.7284C12.5272 12.023 12 12.4975 12 13.1111M12 16.4444V16.5556M5.33333 22H18.6667C20.5076 22 22 20.5076 22 18.6667V5.33333C22 3.49238 20.5076 2 18.6667 2H5.33333C3.49238 2 2 3.49238 2 5.33333V18.6667C2 20.5076 3.49238 22 5.33333 22Z" stroke="#0B0D12" stroke-width="2" stroke-linecap="round" stroke-linejoin="round"/>
</svg>
