<svg width="24" height="24" viewBox="0 0 24 24" fill="none" xmlns="http://www.w3.org/2000/svg">
<path d="M5.7612 13.806C6.16923 13.398 6.83077 13.398 7.2388 13.806L10.194 16.7612C10.602 17.1692 10.602 17.8308 10.194 18.2388L7.2388 21.194C6.83077 21.602 6.16923 21.602 5.7612 21.194L2.80602 18.2388C2.39799 17.8308 2.39799 17.1692 2.80602 16.7612L5.7612 13.806Z" stroke="#0B0D12" stroke-width="2" stroke-linecap="round" stroke-linejoin="round"/>
<path d="M21 6.5C21 8.433 19.433 10 17.5 10C15.567 10 14 8.433 14 6.5C14 4.567 15.567 3 17.5 3C19.433 3 21 4.567 21 6.5Z" stroke="#0B0D12" stroke-width="2" stroke-linecap="round" stroke-linejoin="round"/>
</svg>
