<svg width="24" height="24" viewBox="0 0 24 24" fill="none" xmlns="http://www.w3.org/2000/svg">
<path d="M12 2C11.2558 2 10.5115 2.16597 9.82782 2.49791L4.63176 5.02058C4.24457 5.20855 4 5.5928 4 6.01313V12.1095C4 14.8337 5.28812 17.4071 7.4942 19.0902L10.7644 21.585C11.127 21.8617 11.5635 22 12 22M12 2C12.7442 2 13.4885 2.16597 14.1722 2.49791L19.3682 5.02058C19.7554 5.20855 20 5.5928 20 6.01313V12.1095C20 14.8337 18.7119 17.4071 16.5058 19.0902L13.2356 21.585C12.873 21.8617 12.4365 22 12 22M12 2V22" stroke="#0B0D12" stroke-width="2" stroke-linecap="round" stroke-linejoin="round"/>
</svg>
