<svg width="24" height="24" viewBox="0 0 24 24" fill="none" xmlns="http://www.w3.org/2000/svg">
<path d="M13.3976 3.28262L15.581 6.87649C15.8087 7.25137 16.1802 7.51873 16.6105 7.61745L20.7357 8.56385C21.9334 8.83864 22.4054 10.2774 21.5994 11.1971L18.8236 14.3647C18.5341 14.6951 18.3922 15.1277 18.4304 15.5636L18.7965 19.7423C18.9028 20.9557 17.6673 21.8449 16.5352 21.3698L12.6363 19.7336C12.4371 19.65 12.2253 19.6073 12.0133 19.6056C11.7924 19.6038 11.5712 19.6465 11.3637 19.7336L7.4648 21.3698C6.33275 21.8449 5.0972 20.9557 5.2035 19.7423L5.56962 15.5636C5.6078 15.1277 5.46591 14.6951 5.17637 14.3647L2.4006 11.1971C1.59465 10.2774 2.06658 8.83864 3.26434 8.56385L7.38952 7.61745C7.81982 7.51873 8.1913 7.25137 8.41905 6.87649L10.6024 3.28262C10.922 2.7566 11.4686 2.49569 12.0133 2.5C12.5491 2.50424 13.0832 2.76515 13.3976 3.28262Z" fill="#0B0D12" stroke="#0B0D12" stroke-width="2" stroke-linecap="round" stroke-linejoin="round"/>
</svg>
