<svg width="24" height="24" viewBox="0 0 24 24" fill="none" xmlns="http://www.w3.org/2000/svg">
<path d="M14.7849 2.33481C15.0143 1.8884 15.6524 1.8884 15.8818 2.33481L17.7542 5.97912C17.8131 6.09367 17.9063 6.18691 18.0209 6.24577L21.6652 8.11822C22.1116 8.34759 22.1116 8.98575 21.6652 9.21512L18.0209 11.0876C17.9063 11.1464 17.8131 11.2397 17.7542 11.3542L15.8818 14.9985C15.6524 15.4449 15.0143 15.4449 14.7849 14.9985L12.9124 11.3542C12.8536 11.2397 12.7603 11.1464 12.6458 11.0876L9.00148 9.21512C8.55506 8.98575 8.55506 8.34759 9.00148 8.11822L12.6458 6.24577C12.7603 6.18691 12.8536 6.09367 12.9124 5.97912L14.7849 2.33481Z" stroke="#0B0D12" stroke-width="2" stroke-linecap="round" stroke-linejoin="round"/>
<path d="M5.86411 13.4654C6.10681 12.993 6.78208 12.993 7.02478 13.4654L8.12029 15.5976C8.18257 15.7188 8.28124 15.8174 8.40245 15.8797L10.5346 16.9752C11.007 17.2179 11.007 17.8932 10.5346 18.1359L8.40245 19.2314C8.28124 19.2937 8.18257 19.3923 8.12029 19.5136L7.02478 21.6457C6.78208 22.1181 6.10681 22.1181 5.86411 21.6457L4.7686 19.5136C4.70632 19.3923 4.60765 19.2937 4.48644 19.2314L2.35428 18.1359C1.88191 17.8932 1.88191 17.2179 2.35428 16.9752L4.48644 15.8797C4.60765 15.8174 4.70632 15.7188 4.7686 15.5976L5.86411 13.4654Z" stroke="#0B0D12" stroke-width="2" stroke-linecap="round" stroke-linejoin="round"/>
</svg>
