<svg width="24" height="24" viewBox="0 0 24 24" fill="none" xmlns="http://www.w3.org/2000/svg">
<path d="M12 22C17.264 22 21.5781 17.9327 21.9709 12.7692M12 22C6.73598 22 2.42193 17.9327 2.02915 12.7692M12 22L13.9636 15.1275C14.068 14.7621 14.2652 14.43 14.536 14.1634V14.1634M12 22L10.0364 15.1275C9.93203 14.7621 9.73483 14.43 9.464 14.1634V14.1634M12 8.66667C17.264 8.66667 21.5781 10.4744 21.9709 12.7692M12 8.66667C6.73598 8.66667 2.42193 10.4744 2.02915 12.7692M12 8.66667C10.1591 8.66667 8.66667 10.1591 8.66667 12C8.66667 12.8256 8.96684 13.5812 9.464 14.1634M12 8.66667C13.8409 8.66667 15.3333 10.1591 15.3333 12C15.3333 12.8256 15.0332 13.5812 14.536 14.1634M21.9709 12.7692C21.9902 12.5154 22 12.2588 22 12C22 6.47715 17.5228 2 12 2C6.47715 2 2 6.47715 2 12C2 12.2588 2.00983 12.5154 2.02915 12.7692M21.9709 12.7692L14.536 14.1634M2.02915 12.7692L9.464 14.1634" stroke="#0B0D12" stroke-width="2" stroke-linecap="round" stroke-linejoin="round"/>
</svg>
