<svg width="24" height="24" viewBox="0 0 24 24" fill="none" xmlns="http://www.w3.org/2000/svg">
<path d="M7.37514 3H5C3.34315 3 2 4.34315 2 6V11.25C2 12.9069 3.34315 14.25 5 14.25H7.45022M7.37514 3H17.5839C19.1425 3 20.4782 4.16648 20.757 5.77127L21.9647 12.7225C22.2047 14.1036 21.1908 15.375 19.8493 15.375H16.7752C16.3005 15.375 15.882 15.7009 15.7455 16.1767L14.5927 20.1983C14.4563 20.6741 14.0377 21 13.563 21H12.2608C11.4841 21 10.7677 20.5616 10.3869 19.8531C9.44695 18.1044 7.95104 16.1809 7.45022 14.25M7.37514 3C7.37514 6.45382 6.58223 10.9035 7.45022 14.25" stroke="#0B0D12" stroke-width="2" stroke-linecap="round" stroke-linejoin="round"/>
</svg>
