<svg width="24" height="24" viewBox="0 0 24 24" fill="none" xmlns="http://www.w3.org/2000/svg">
<path d="M7.37514 21H5C3.34315 21 2 19.6569 2 18V12.75C2 11.0931 3.34315 9.75 5 9.75H7.45022M7.37514 21H17.5839C19.1425 21 20.4782 19.8335 20.757 18.2287L21.9647 11.2775C22.2047 9.89635 21.1908 8.625 19.8493 8.625H16.7752C16.3005 8.625 15.882 8.29912 15.7455 7.82327L14.5927 3.80173C14.4563 3.32588 14.0377 3 13.563 3H12.2608C11.4841 3 10.7677 3.43844 10.3869 4.14691C9.44695 5.89558 7.95104 7.81909 7.45022 9.75M7.37514 21C7.37514 17.5462 6.58223 13.0965 7.45022 9.75" stroke="#0B0D12" stroke-width="2" stroke-linecap="round" stroke-linejoin="round"/>
</svg>
