<svg width="24" height="24" viewBox="0 0 24 24" fill="none" xmlns="http://www.w3.org/2000/svg">
<path d="M16.9383 14.4243C17.298 13.6929 17.5 12.8701 17.5 12C17.5 11.1299 17.298 10.3071 16.9383 9.57572M16.9383 14.4243C16.4019 15.5149 15.5149 16.4019 14.4243 16.9383M16.9383 14.4243L21.0975 16.1573M16.9383 9.57572C16.4019 8.48515 15.5149 7.59813 14.4243 7.06174M16.9383 9.57572L21.0975 7.84269M14.4243 7.06174C13.6929 6.70203 12.8701 6.5 12 6.5C11.1299 6.5 10.3071 6.70203 9.57572 7.06174M14.4243 7.06174L16.1573 2.90245M9.57572 7.06174C8.48515 7.59813 7.59813 8.48515 7.06174 9.57572M9.57572 7.06174L7.84269 2.90245M7.06174 9.57572C6.70203 10.3071 6.5 11.1299 6.5 12C6.5 12.8701 6.70203 13.6929 7.06174 14.4243M7.06174 9.57572L2.90245 7.84269M7.06174 14.4243C7.59813 15.5149 8.48515 16.4019 9.57572 16.9383M7.06174 14.4243L2.90245 16.1573M9.57572 16.9383C10.3071 17.298 11.1299 17.5 12 17.5C12.8701 17.5 13.6929 17.298 14.4243 16.9383M9.57572 16.9383L7.84269 21.0975M14.4243 16.9383L16.1573 21.0975M21.0975 7.84269C21.677 9.1087 22 10.5166 22 12C22 13.4834 21.677 14.8913 21.0975 16.1573M21.0975 7.84269C20.099 5.66113 18.3389 3.90098 16.1573 2.90245M16.1573 2.90245C14.8913 2.32298 13.4834 2 12 2C10.5166 2 9.1087 2.32298 7.84269 2.90245M7.84269 2.90245C5.66113 3.90098 3.90098 5.66113 2.90245 7.84269M2.90245 7.84269C2.32298 9.1087 2 10.5166 2 12C2 13.4834 2.32298 14.8913 2.90245 16.1573M2.90245 16.1573C3.90098 18.3389 5.66113 20.099 7.84269 21.0975M7.84269 21.0975C9.1087 21.677 10.5166 22 12 22C13.4834 22 14.8913 21.677 16.1573 21.0975M16.1573 21.0975C18.3389 20.099 20.099 18.3389 21.0975 16.1573M12 14L12.7639 12.382L14 11L12 11.2361L10 11L11.2361 12.382L12 14Z" stroke="#0B0D12" stroke-width="2" stroke-linecap="round" stroke-linejoin="round"/>
</svg>
