<svg width="24" height="24" viewBox="0 0 24 24" fill="none" xmlns="http://www.w3.org/2000/svg">
<path d="M19.7324 17H20.5C21.3284 17 22 17.6716 22 18.5V20.5C22 21.3284 21.3284 22 20.5 22H15.5C14.6716 22 14 21.3284 14 20.5V18.5C14 17.6716 14.6716 17 15.5 17H16.2676M19.7324 17C19.9026 16.7058 20 16.3643 20 16C20 14.8954 19.1046 14 18 14C16.8954 14 16 14.8954 16 16C16 16.3643 16.0974 16.7058 16.2676 17M19.7324 17H16.2676M4 22V21C4 18.2386 6.23858 16 9 16H11M17 7C17 9.76142 14.7614 12 12 12C9.23858 12 7 9.76142 7 7C7 4.23858 9.23858 2 12 2C14.7614 2 17 4.23858 17 7Z" stroke="#0B0D12" stroke-width="2" stroke-linecap="round" stroke-linejoin="round"/>
</svg>
