<svg width="24" height="24" viewBox="0 0 24 24" fill="none" xmlns="http://www.w3.org/2000/svg">
<path d="M16.7368 21V20.1C16.7368 17.6147 14.675 15.6 12.1316 15.6H6.60526C4.06185 15.6 2 17.6147 2 20.1V21M22 21V20.1C22 18.5153 21.1617 17.1219 19.8947 16.3201M16.7368 3.49667C18.2215 4.24362 19.2368 5.75594 19.2368 7.5C19.2368 8.91363 18.5698 10.175 17.5264 11M13.9737 7.5C13.9737 9.98528 11.9118 12 9.36842 12C6.825 12 4.76316 9.98528 4.76316 7.5C4.76316 5.01472 6.825 3 9.36842 3C11.9118 3 13.9737 5.01472 13.9737 7.5Z" stroke="#0B0D12" stroke-width="2" stroke-linecap="round" stroke-linejoin="round"/>
</svg>
