<svg width="24" height="24" viewBox="0 0 24 24" fill="none" xmlns="http://www.w3.org/2000/svg">
<path d="M20.9749 20.9749C21.6082 20.3415 22 19.4665 22 18.5C22 16.567 20.433 15 18.5 15C17.5335 15 16.6585 15.3918 16.0251 16.0251M20.9749 20.9749C20.3415 21.6082 19.4665 22 18.5 22C16.567 22 15 20.433 15 18.5C15 17.5335 15.3918 16.6585 16.0251 16.0251M20.9749 20.9749L16.0251 16.0251M4 22V21C4 18.2386 6.23858 16 9 16H12M17 7C17 9.76142 14.7614 12 12 12C9.23858 12 7 9.76142 7 7C7 4.23858 9.23858 2 12 2C14.7614 2 17 4.23858 17 7Z" stroke="#0B0D12" stroke-width="2" stroke-linecap="round" stroke-linejoin="round"/>
</svg>
