<svg width="24" height="24" viewBox="0 0 24 24" fill="none" xmlns="http://www.w3.org/2000/svg">
<path d="M21 14.0933L16.8989 10.1335M16.8984 14.0927L20.9999 10.1333" stroke="#0B0D12" stroke-width="2" stroke-linecap="round" stroke-linejoin="round"/>
<path d="M4.88707 17.1483H4.10534C3.10787 17.1483 2.27269 16.4037 2.17344 15.4259C1.94219 13.1476 1.94219 10.8524 2.17344 8.57413C2.27269 7.59632 3.10787 6.8517 4.10534 6.8517H4.88707C5.61086 6.8517 6.31237 6.605 6.87256 6.15346L9.01286 4.42826C10.1901 3.47931 11.9663 4.19877 12.1255 5.6891C12.5738 9.88478 12.5738 14.1152 12.1255 18.3109C11.9663 19.8012 10.1901 20.5207 9.01286 19.5717L6.87256 17.8465C6.31237 17.395 5.61086 17.1483 4.88707 17.1483Z" stroke="#0B0D12" stroke-width="2" stroke-linecap="round" stroke-linejoin="round"/>
</svg>
