<svg width="24" height="24" viewBox="0 0 24 24" fill="none" xmlns="http://www.w3.org/2000/svg">
<path d="M6.88707 17.1483H6.10534C5.10787 17.1483 4.27269 16.4037 4.17344 15.4259C3.94219 13.1476 3.94219 10.8524 4.17344 8.57413C4.27269 7.59632 5.10787 6.8517 6.10534 6.8517H6.88707C7.61086 6.8517 8.31237 6.605 8.87256 6.15346L11.0129 4.42826C12.1901 3.47931 13.9663 4.19877 14.1255 5.6891C14.2641 6.98586 14.3598 8.28595 14.4127 9.5873M21 3L14.4127 9.5873M3 21L14.4127 9.5873M10 18.7553L11.0129 19.5717C12.1901 20.5207 13.9663 19.8012 14.1255 18.3109C14.2432 17.2092 14.33 16.1052 14.3859 15" stroke="#0B0D12" stroke-width="2" stroke-linecap="round" stroke-linejoin="round"/>
</svg>
