<svg width="24" height="24" viewBox="0 0 24 24" fill="none" xmlns="http://www.w3.org/2000/svg">
<path d="M12 22H15.2926M12 22H8.70739M12 22V15.3333M12 15.3333C6.70748 15.3333 4.32537 12.2759 4.03134 8.55953M12 15.3333C17.225 15.3333 19.6134 12.3534 19.9564 8.70144M4.03134 8.55953C3.87993 6.64573 4.28226 4.55721 5.12603 2.62152C5.29387 2.23649 5.67737 2 6.09309 2H17.9069C18.3226 2 18.7061 2.23648 18.874 2.62152C19.7386 4.60517 20.1397 6.74931 19.9564 8.70144M4.03134 8.55953L6.94581 7.40927C7.7379 7.14197 8.58885 7.10889 9.39886 7.3139L11.0301 7.72675C12.0101 7.97478 13.0454 7.85972 13.9489 7.40238C15.1402 6.79935 16.5425 6.79935 17.7339 7.40238L19.9564 8.70144" stroke="#0B0D12" stroke-width="2" stroke-linecap="round"/>
</svg>
